<svg width="1024" height="424" viewBox="-0.969375 -0.969375 82.6262 34.2512" xmlns="http://www.w3.org/2000/svg" xmlns:xlink="http://www.w3.org/1999/xlink" id="svg5622" overflow="hidden"><defs id="defs5624"></defs><path d="M62.742 0.20119 62.742 16.2035 62.5379 16.3721 62.3337 16.5407 62.138 16.7178 61.9509 16.8948 61.7723 17.0719 61.5936 17.2574 61.4235 17.4428 61.2533 17.6283 61.2533 0.20119 43.3637 0.20119 43.3637 14.7702 41.8835 14.7702 41.8835 0.20119 23.9938 0.20119 23.9938 14.7955 22.5136 14.7955 22.5136 0.20119 4.62391 0.20119 4.62391 16.8358 0.05578 31.9191 4.07097 31.9191 6.08707 25.2416 6.66553 25.2416 10.0002 31.9191 14.849 31.9191 11.6165 25.2416 18.9493 25.2416 16.9162 31.9191 21.2971 31.9191 23.3047 25.2585 24.2745 25.2585 24.2745 25.2416 25.6526 25.2416 25.7632 25.2416 34.0402 25.2416 32.1007 31.9022 36.5242 31.9022 38.4042 25.2416 40.3948 25.2416 40.4458 31.9022 44.1547 31.9022 48.4166 25.2416 51.2068 25.2416 49.7607 31.9022 54.1161 31.9022 55.5368 25.2416 58.0548 25.2416 58.0378 25.621 58.0468 26.0088 58.0638 26.3798 58.0978 26.7507 58.1233 26.9278 58.1488 27.1049 58.1828 27.2819 58.2168 27.459 58.2593 27.636 58.3018 27.8046 58.3528 27.9733 58.4038 28.1419 58.4634 28.3105 58.523 28.4707 58.591 28.6309 58.6591 28.7826 58.7357 28.9428 58.8123 29.0946 58.8974 29.2379 58.9825 29.3897 59.0761 29.533 59.1781 29.6679 59.2802 29.8113 59.3908 29.9377 59.5014 30.0726 59.612 30.1991 59.7396 30.3256 59.8672 30.4436 60.0288 30.5785 60.1904 30.7134 60.3606 30.8398 60.5392 30.9579 60.7179 31.0759 60.8965 31.1855 61.0837 31.2782 61.2793 31.3794 61.4665 31.4637 61.6621 31.548 61.8578 31.6239 62.0619 31.6998 62.2661 31.7673 62.4703 31.8263 62.6744 31.8853 62.8786 31.9359 63.2869 32.0286 63.7037 32.0961 64.1121 32.1551 64.5204 32.2057 64.9202 32.2394 65.3115 32.2563 65.6943 32.2732 66.0601 32.2732 66.5535 32.2652 67.0469 32.2572 67.5488 32.2319 68.0507 32.2066 68.5526 32.1644 69.0545 32.1222 69.5564 32.0716 70.0583 32.0126 70.5687 31.9451 71.0791 31.8692 71.5895 31.7849 72.0999 31.7006 72.6103 31.6079 73.1207 31.5067 73.6311 31.4056 74.15 31.2875 75.6642 25.2424 80.6322 25.2424 80.6322 0.20197 62.7425 0.20197ZM6.28272 24.6177 6.30822 24.525 6.36782 24.6177 6.28272 24.6177ZM21.8671 15.647 21.6119 16.4986 19.23 24.3395 19.1364 24.6177 11.3102 24.6177 10.7062 23.3362 19.1364 14.7955 13.7176 14.7955 7.12487 21.8354 9.26006 14.7955 5.26189 14.7955 5.26189 0.83353 21.8671 0.83353 21.8671 15.647ZM26.4862 22.2739 26.4862 22.2739 26.3587 22.2819 26.2396 22.2899 26.112 22.2979 25.9758 22.2979 25.7972 22.2979 25.6441 22.2979 25.4995 22.3059 25.3634 22.3059 24.3 22.2979 24.7934 20.4936 25.0231 19.5999 25.5845 17.5006 25.7632 17.5006 25.9503 17.5006 26.129 17.4926 26.2991 17.4926 27.1243 17.4926 27.6262 17.5006 28.0855 17.5175 28.2897 17.5255 28.4853 17.5424 28.6725 17.5677 28.8426 17.593 28.9957 17.6183 29.1404 17.6605 29.2765 17.7027 29.3956 17.7533 29.4976 17.8039 29.5912 17.8714 29.6763 17.9389 29.7443 18.0232 29.7868 18.0907 29.8208 18.1582 29.8548 18.2341 29.8803 18.3184 29.8973 18.4111 29.9063 18.5038 29.9063 18.6049 29.9063 18.7145 29.8973 18.8326 29.8893 18.9506 29.8638 19.0855 29.8383 19.2204 29.7617 19.5071 29.6681 19.8274 29.5745 20.0972 29.4725 20.3586 29.3619 20.6031 29.2428 20.8307 29.1832 20.9319 29.1236 21.0331 29.0555 21.1343 28.9789 21.227 28.9023 21.3197 28.8257 21.404 28.7406 21.4883 28.6555 21.5642 28.5619 21.6317 28.4683 21.7076 28.3662 21.7666 28.2556 21.8341 28.145 21.8931 28.0259 21.9437 27.9068 21.9943 27.7792 22.0365 27.6431 22.0871 27.4985 22.1208 27.3454 22.1545 27.1923 22.1882 27.0221 22.2135 26.852 22.2388 26.6734 22.2557 26.4862 22.2726ZM38.5829 24.6177 40.3267 18.463 40.3948 24.6177 38.5829 24.6177ZM41.237 14.7702 37.0857 14.7702 34.2274 24.6177 29.8209 24.6177 30.0251 24.5334 30.2292 24.4491 30.4249 24.3648 30.6205 24.2721 30.8077 24.1794 30.9863 24.0698 31.165 23.9686 31.3351 23.859 31.5052 23.741 31.6669 23.623 31.82 23.5049 31.9731 23.37 32.1177 23.2436 32.2538 23.1002 32.3899 22.9653 32.5175 22.8136 32.6451 22.6702 32.7642 22.51 32.8748 22.3583 32.9854 22.1897 33.0875 22.021 33.1811 21.8524 33.2747 21.6754 33.3598 21.4899 33.4449 21.3044 33.5215 21.1189 33.5895 20.925 33.6576 20.7227 33.7086 20.5203 33.7682 20.318 33.8107 20.0987 33.8532 19.888 33.9128 19.5507 33.9638 19.2304 33.9978 18.9268 34.0233 18.6402 34.0323 18.3535 34.0233 18.0921 34.0153 17.8308 33.9813 17.5863 33.9473 17.3586 33.8877 17.131 33.8281 16.9202 33.743 16.7179 33.6494 16.524 33.5473 16.33 33.4282 16.153 33.2921 15.9844 33.1815 15.8663 33.0709 15.7483 32.9518 15.6471 32.8242 15.5544 32.6881 15.4617 32.552 15.3774 32.4074 15.3015 32.2628 15.234 32.1097 15.1665 31.9566 15.1159 31.7949 15.0653 31.6333 15.0147 31.4632 14.9725 31.293 14.9388 31.1229 14.9051 30.9442 14.8798 30.5784 14.8292 30.2127 14.8039 29.8384 14.7786 29.4556 14.7706 28.69 14.7706 27.9329 14.7706 27.6947 14.7706 27.2693 14.7706 26.7419 14.7706 26.1549 14.7706 25.585 14.7706 25.1001 14.7706 24.7598 14.7706 24.6322 14.7706 24.6322 0.83398 41.2374 0.83398 41.2374 14.7706ZM51.326 24.6177 48.8335 24.6177 52.6105 18.7159 51.326 24.6177ZM60.6068 15.0484 60.5978 18.463 60.3852 18.7581 60.1895 19.0616 59.9939 19.3651 59.8152 19.6686 59.6451 19.9722 59.4749 20.2841 59.3303 20.5876 59.1857 20.8912 59.0496 21.1863 58.9305 21.4898 58.8114 21.7849 58.7093 22.0715 58.6157 22.3582 58.5306 22.6364 58.454 22.9062 58.3859 23.176 58.3434 23.3531 58.3009 23.5385 58.2584 23.7156 58.2244 23.9011 58.1904 24.0781 58.1649 24.2552 58.1394 24.4322 58.1224 24.6177 55.681 24.6177 57.7651 14.7955 50.7386 14.7875 44.4521 24.6182 43.9927 24.6182 43.9927 0.83396 60.6064 0.83396 60.6064 15.0488ZM70.1854 28.6394 69.8366 28.6984 69.4794 28.749 69.1221 28.7996 68.7733 28.8418 68.4245 28.8755 68.0758 28.9008 67.7355 28.9177 67.3952 28.9177 67.174 28.9177 66.9529 28.9097 66.7402 28.8928 66.5275 28.8675 66.3234 28.8338 66.1277 28.8001 65.9321 28.7579 65.7449 28.7073 65.5663 28.6483 65.3876 28.5893 65.2175 28.5134 65.0559 28.4375 64.8942 28.3448 64.7411 28.2521 64.5965 28.1509 64.4604 28.0497 64.3243 27.9317 64.2052 27.8052 64.0861 27.6787 63.9755 27.5354 63.8734 27.3921 63.7798 27.2319 63.6947 27.0717 63.6096 26.9031 63.5415 26.726 63.4819 26.5321 63.4309 26.3382 63.3799 26.1359 63.3459 25.9251 63.3204 25.7059 63.3034 25.4782 63.2944 25.2421 71.0356 25.2421 70.1849 28.6399ZM80.0022 24.6177 75.8169 24.6177 76.5059 21.8692 68.1183 21.8692 67.4292 24.6177 63.3715 24.6177 63.3715 24.0528 63.4225 23.8168 63.465 23.5807 63.516 23.3277 63.567 23.0748 63.6436 22.7966 63.7202 22.5184 63.8053 22.2401 63.8989 21.9703 64.001 21.7006 64.1116 21.4307 64.2307 21.1694 64.3498 20.908 64.4859 20.6467 64.622 20.4022 64.7666 20.1492 64.9282 19.9132 65.0899 19.6771 65.2515 19.4494 65.4301 19.2302 65.6173 19.0194 65.8129 18.8171 66.0086 18.6316 66.2213 18.4461 66.4339 18.2691 66.6551 18.1089 66.8933 17.9571 67.1315 17.8222 67.3782 17.6958 67.6334 17.5777 67.8971 17.4766 68.1693 17.3923 68.45 17.3248 68.7393 17.2658 69.037 17.2236 69.3432 17.1983 69.658 17.1903 69.9047 17.1983 70.1514 17.2152 70.3981 17.2489 70.6363 17.2995 70.7554 17.3332 70.866 17.3669 70.9765 17.4006 71.0786 17.4512 71.1807 17.4934 71.2828 17.5524 71.3764 17.6114 71.47 17.6704 71.5551 17.7463 71.6402 17.8222 71.7168 17.8981 71.7934 17.9908 71.8615 18.0751 71.9211 18.1762 71.9721 18.2858 72.0231 18.3954 72.0656 18.5135 72.0996 18.6399 72.1251 18.7664 72.1506 18.9097 72.1596 19.0531 72.1596 19.2048 72.1596 19.365 72.1426 19.5336 77.1445 19.5336 77.2212 19.188 77.2893 18.7917 77.3232 18.5809 77.3402 18.3533 77.3572 18.1256 77.3572 17.8896 77.3493 17.6451 77.3238 17.3921 77.2982 17.2741 77.2813 17.1476 77.2473 17.0212 77.2132 16.8947 77.1708 16.7598 77.1283 16.6333 77.0772 16.5069 77.0176 16.3804 76.9581 16.2539 76.8814 16.1275 76.8048 16.001 76.7197 15.8745 76.6177 15.7396 76.5071 15.6132 76.3965 15.4867 76.2774 15.3687 76.1498 15.2506 76.0137 15.141 75.8776 15.0399 75.733 14.9387 75.5798 14.8375 75.4267 14.7532 75.2651 14.6689 75.095 14.5846 74.9248 14.5087 74.7462 14.4328 74.559 14.3653 74.3719 14.2978 74.1847 14.2388 73.9806 14.1882 73.7849 14.1376 73.5723 14.087 73.3596 14.0448 73.1469 14.0026 72.9257 13.9689 72.6961 13.9436 72.2282 13.893 71.7518 13.8508 71.2499 13.8339 70.7395 13.8259 70.3567 13.8339 69.9569 13.8419 69.54 13.8672 69.1062 13.9009 68.6553 13.9515 68.196 14.0105 67.7281 14.0864 67.2517 14.1876 67.0135 14.2382 66.7669 14.2972 66.5287 14.3647 66.282 14.4322 66.0353 14.5081 65.7886 14.5924 65.5419 14.6767 65.3037 14.7694 65.057 14.8706 64.8103 14.9802 64.5721 15.0898 64.3254 15.2078 64.0872 15.3343 63.849 15.4692 63.6109 15.6041 63.3727 15.7558 63.3727 0.83274 80.0034 0.83274 80.0034 24.6169Z" id="path5037" stroke="#FFFFFF" stroke-width="0.00846885" stroke-miterlimit="10" stroke-opacity="0" fill="#F2F5F9"/></svg>